<mxfile host="65bd71144e">
    <diagram id="xx0u0yS2pgRXYJOd6JUw" name="Page-1">
        <mxGraphModel dx="1168" dy="501" grid="1" gridSize="10" guides="1" tooltips="1" connect="1" arrows="1" fold="1" page="1" pageScale="1" pageWidth="827" pageHeight="11069" math="0" shadow="0">
            <root>
                <mxCell id="0"/>
                <mxCell id="1" parent="0"/>
                <mxCell id="2" value="Document" style="rounded=0;whiteSpace=wrap;html=1;" parent="1" vertex="1">
                    <mxGeometry x="190" y="140" width="120" height="220" as="geometry"/>
                </mxCell>
                <mxCell id="3" value="paragraph" style="rounded=0;whiteSpace=wrap;html=1;" parent="1" vertex="1">
                    <mxGeometry x="215" y="290" width="70" height="20" as="geometry"/>
                </mxCell>
                <mxCell id="4" value="paragraph" style="rounded=0;whiteSpace=wrap;html=1;" parent="1" vertex="1">
                    <mxGeometry x="215" y="310" width="70" height="20" as="geometry"/>
                </mxCell>
                <mxCell id="5" value="paragraph" style="rounded=0;whiteSpace=wrap;html=1;" parent="1" vertex="1">
                    <mxGeometry x="215" y="330" width="70" height="20" as="geometry"/>
                </mxCell>
                <mxCell id="6" value="" style="endArrow=classic;html=1;exitX=0;exitY=0.25;exitDx=0;exitDy=0;" parent="1" source="2" edge="1">
                    <mxGeometry width="50" height="50" relative="1" as="geometry">
                        <mxPoint x="110" y="170" as="sourcePoint"/>
                        <mxPoint x="130" y="160" as="targetPoint"/>
                    </mxGeometry>
                </mxCell>
                <mxCell id="7" value="canvas size" style="text;html=1;align=center;verticalAlign=middle;resizable=0;points=[];autosize=1;strokeColor=none;fillColor=none;" parent="1" vertex="1">
                    <mxGeometry x="25" y="125" width="90" height="30" as="geometry"/>
                </mxCell>
                <mxCell id="8" value="wrap size" style="text;html=1;align=center;verticalAlign=middle;resizable=0;points=[];autosize=1;strokeColor=none;fillColor=none;" parent="1" vertex="1">
                    <mxGeometry x="35" y="155" width="70" height="30" as="geometry"/>
                </mxCell>
                <mxCell id="9" value="" style="endArrow=classic;html=1;exitX=1;exitY=0.5;exitDx=0;exitDy=0;" parent="1" source="3" target="10" edge="1">
                    <mxGeometry width="50" height="50" relative="1" as="geometry">
                        <mxPoint x="560" y="290" as="sourcePoint"/>
                        <mxPoint x="440" y="250" as="targetPoint"/>
                    </mxGeometry>
                </mxCell>
                <mxCell id="10" value="" style="rounded=0;whiteSpace=wrap;html=1;" parent="1" vertex="1">
                    <mxGeometry x="414" y="210" width="86" height="160" as="geometry"/>
                </mxCell>
                <mxCell id="11" value="Text" style="rounded=0;whiteSpace=wrap;html=1;" parent="1" vertex="1">
                    <mxGeometry x="432" y="250" width="50" height="20" as="geometry"/>
                </mxCell>
                <mxCell id="12" value="Text" style="rounded=0;whiteSpace=wrap;html=1;" parent="1" vertex="1">
                    <mxGeometry x="432" y="270" width="50" height="20" as="geometry"/>
                </mxCell>
                <mxCell id="13" value="Text" style="rounded=0;whiteSpace=wrap;html=1;" parent="1" vertex="1">
                    <mxGeometry x="432" y="290" width="50" height="20" as="geometry"/>
                </mxCell>
                <mxCell id="14" value="pack" style="endArrow=classic;html=1;" parent="1" edge="1">
                    <mxGeometry width="50" height="50" relative="1" as="geometry">
                        <mxPoint x="360" y="380" as="sourcePoint"/>
                        <mxPoint x="360" y="500" as="targetPoint"/>
                    </mxGeometry>
                </mxCell>
                <mxCell id="15" value="render" style="endArrow=classic;html=1;" parent="1" edge="1">
                    <mxGeometry width="50" height="50" relative="1" as="geometry">
                        <mxPoint x="360" y="640" as="sourcePoint"/>
                        <mxPoint x="360" y="740" as="targetPoint"/>
                    </mxGeometry>
                </mxCell>
                <mxCell id="16" value="" style="rounded=0;whiteSpace=wrap;html=1;fillColor=none;" parent="1" vertex="1">
                    <mxGeometry x="165" y="110" width="185" height="270" as="geometry"/>
                </mxCell>
                <mxCell id="17" value="Editor" style="text;html=1;align=center;verticalAlign=middle;resizable=0;points=[];autosize=1;strokeColor=none;fillColor=none;" parent="1" vertex="1">
                    <mxGeometry x="175" y="80" width="50" height="30" as="geometry"/>
                </mxCell>
                <mxCell id="18" value="editPosition" style="text;html=1;align=center;verticalAlign=middle;resizable=0;points=[];autosize=1;strokeColor=none;fillColor=none;" parent="1" vertex="1">
                    <mxGeometry x="15" y="185" width="90" height="30" as="geometry"/>
                </mxCell>
                <mxCell id="19" value="" style="endArrow=classic;html=1;" parent="1" edge="1">
                    <mxGeometry width="50" height="50" relative="1" as="geometry">
                        <mxPoint x="350" y="140" as="sourcePoint"/>
                        <mxPoint x="400" y="90" as="targetPoint"/>
                    </mxGeometry>
                </mxCell>
                <mxCell id="20" value="caretPosition" style="text;html=1;align=center;verticalAlign=middle;resizable=0;points=[];autosize=1;strokeColor=none;fillColor=none;" parent="1" vertex="1">
                    <mxGeometry x="400" y="45" width="90" height="30" as="geometry"/>
                </mxCell>
                <mxCell id="21" value="scale" style="text;html=1;align=center;verticalAlign=middle;resizable=0;points=[];autosize=1;strokeColor=none;fillColor=none;" parent="1" vertex="1">
                    <mxGeometry x="405" y="75" width="50" height="30" as="geometry"/>
                </mxCell>
            </root>
        </mxGraphModel>
    </diagram>
    <diagram id="9JeXXQs1dWOkxpak5HHt" name="Page-2">
        <mxGraphModel dx="1168" dy="501" grid="1" gridSize="10" guides="1" tooltips="1" connect="1" arrows="1" fold="1" page="1" pageScale="1" pageWidth="827" pageHeight="11069" math="0" shadow="0">
            <root>
                <mxCell id="0"/>
                <mxCell id="1" parent="0"/>
                <mxCell id="lk7DuotzEt6AuaLzIbeO-4" value="" style="rounded=0;whiteSpace=wrap;html=1;fillColor=none;" parent="1" vertex="1">
                    <mxGeometry x="159.75" y="60" width="260" height="80" as="geometry"/>
                </mxCell>
                <mxCell id="lk7DuotzEt6AuaLzIbeO-5" value="document" style="text;html=1;align=center;verticalAlign=middle;resizable=0;points=[];autosize=1;strokeColor=none;fillColor=none;" parent="1" vertex="1">
                    <mxGeometry x="159.75" y="60" width="80" height="30" as="geometry"/>
                </mxCell>
                <mxCell id="lk7DuotzEt6AuaLzIbeO-33" value="paragraph break" style="edgeStyle=none;html=1;entryX=0.5;entryY=0;entryDx=0;entryDy=0;" parent="1" target="lk7DuotzEt6AuaLzIbeO-15" edge="1">
                    <mxGeometry relative="1" as="geometry">
                        <mxPoint x="239.75" y="140" as="sourcePoint"/>
                    </mxGeometry>
                </mxCell>
                <mxCell id="lk7DuotzEt6AuaLzIbeO-14" value="" style="rounded=0;whiteSpace=wrap;html=1;" parent="1" vertex="1">
                    <mxGeometry x="111.88999999999999" y="245" width="90" height="30" as="geometry"/>
                </mxCell>
                <mxCell id="lk7DuotzEt6AuaLzIbeO-58" value="wrap lines" style="edgeStyle=none;html=1;exitX=0.5;exitY=1;exitDx=0;exitDy=0;entryX=0.5;entryY=0;entryDx=0;entryDy=0;" parent="1" source="lk7DuotzEt6AuaLzIbeO-15" target="lk7DuotzEt6AuaLzIbeO-71" edge="1">
                    <mxGeometry relative="1" as="geometry">
                        <mxPoint x="272.4324999999999" y="386" as="targetPoint"/>
                    </mxGeometry>
                </mxCell>
                <mxCell id="lk7DuotzEt6AuaLzIbeO-15" value="" style="rounded=0;whiteSpace=wrap;html=1;fillColor=none;" parent="1" vertex="1">
                    <mxGeometry x="89.50999999999999" y="200" width="330" height="120" as="geometry"/>
                </mxCell>
                <mxCell id="lk7DuotzEt6AuaLzIbeO-16" value="document" style="text;html=1;align=center;verticalAlign=middle;resizable=0;points=[];autosize=1;strokeColor=none;fillColor=none;" parent="1" vertex="1">
                    <mxGeometry x="89.50999999999999" y="200" width="80" height="30" as="geometry"/>
                </mxCell>
                <mxCell id="lk7DuotzEt6AuaLzIbeO-19" value="para" style="rounded=0;whiteSpace=wrap;html=1;fillColor=none;" parent="1" vertex="1">
                    <mxGeometry x="111.88999999999999" y="245" width="30" height="30" as="geometry"/>
                </mxCell>
                <mxCell id="lk7DuotzEt6AuaLzIbeO-21" value="para" style="rounded=0;whiteSpace=wrap;html=1;fillColor=none;" parent="1" vertex="1">
                    <mxGeometry x="141.89" y="245" width="30" height="30" as="geometry"/>
                </mxCell>
                <mxCell id="lk7DuotzEt6AuaLzIbeO-22" value="para" style="rounded=0;whiteSpace=wrap;html=1;fillColor=none;" parent="1" vertex="1">
                    <mxGeometry x="171.89" y="245" width="30" height="30" as="geometry"/>
                </mxCell>
                <mxCell id="lk7DuotzEt6AuaLzIbeO-23" value="" style="rounded=0;whiteSpace=wrap;html=1;" parent="1" vertex="1">
                    <mxGeometry x="201.89" y="245" width="90" height="30" as="geometry"/>
                </mxCell>
                <mxCell id="lk7DuotzEt6AuaLzIbeO-24" value="para" style="rounded=0;whiteSpace=wrap;html=1;fillColor=none;" parent="1" vertex="1">
                    <mxGeometry x="201.89" y="245" width="30" height="30" as="geometry"/>
                </mxCell>
                <mxCell id="lk7DuotzEt6AuaLzIbeO-26" value="para" style="rounded=0;whiteSpace=wrap;html=1;fillColor=none;" parent="1" vertex="1">
                    <mxGeometry x="231.89" y="245" width="30" height="30" as="geometry"/>
                </mxCell>
                <mxCell id="lk7DuotzEt6AuaLzIbeO-27" value="para" style="rounded=0;whiteSpace=wrap;html=1;fillColor=none;" parent="1" vertex="1">
                    <mxGeometry x="261.89" y="245" width="30" height="30" as="geometry"/>
                </mxCell>
                <mxCell id="lk7DuotzEt6AuaLzIbeO-28" value="" style="rounded=0;whiteSpace=wrap;html=1;fillColor=none;" parent="1" vertex="1">
                    <mxGeometry x="368.51" y="230" width="36" height="60" as="geometry"/>
                </mxCell>
                <mxCell id="lk7DuotzEt6AuaLzIbeO-29" value="Text" style="rounded=0;whiteSpace=wrap;html=1;fillColor=none;" parent="1" vertex="1">
                    <mxGeometry x="368.51" y="230" width="36" height="20" as="geometry"/>
                </mxCell>
                <mxCell id="lk7DuotzEt6AuaLzIbeO-30" value="Text" style="rounded=0;whiteSpace=wrap;html=1;fillColor=none;" parent="1" vertex="1">
                    <mxGeometry x="368.51" y="250" width="36" height="20" as="geometry"/>
                </mxCell>
                <mxCell id="lk7DuotzEt6AuaLzIbeO-31" value="Text" style="rounded=0;whiteSpace=wrap;html=1;fillColor=none;" parent="1" vertex="1">
                    <mxGeometry x="368.51" y="270" width="36" height="20" as="geometry"/>
                </mxCell>
                <mxCell id="lk7DuotzEt6AuaLzIbeO-32" value="" style="endArrow=classic;startArrow=classic;html=1;exitX=1;exitY=0.5;exitDx=0;exitDy=0;" parent="1" source="lk7DuotzEt6AuaLzIbeO-27" edge="1">
                    <mxGeometry width="50" height="50" relative="1" as="geometry">
                        <mxPoint x="344.51" y="260" as="sourcePoint"/>
                        <mxPoint x="340" y="260" as="targetPoint"/>
                    </mxGeometry>
                </mxCell>
                <mxCell id="lk7DuotzEt6AuaLzIbeO-35" value="" style="rounded=0;whiteSpace=wrap;html=1;" parent="1" vertex="1">
                    <mxGeometry x="47.24999999999999" y="480" width="90" height="30" as="geometry"/>
                </mxCell>
                <mxCell id="lk7DuotzEt6AuaLzIbeO-37" value="document" style="text;html=1;align=center;verticalAlign=middle;resizable=0;points=[];autosize=1;strokeColor=none;fillColor=none;" parent="1" vertex="1">
                    <mxGeometry x="29.999999999999993" y="390" width="80" height="30" as="geometry"/>
                </mxCell>
                <mxCell id="lk7DuotzEt6AuaLzIbeO-39" value="para" style="rounded=0;whiteSpace=wrap;html=1;fillColor=none;" parent="1" vertex="1">
                    <mxGeometry x="47.24999999999999" y="480" width="30" height="30" as="geometry"/>
                </mxCell>
                <mxCell id="lk7DuotzEt6AuaLzIbeO-41" value="para" style="rounded=0;whiteSpace=wrap;html=1;fillColor=none;" parent="1" vertex="1">
                    <mxGeometry x="77.25" y="480" width="30" height="30" as="geometry"/>
                </mxCell>
                <mxCell id="lk7DuotzEt6AuaLzIbeO-42" value="para" style="rounded=0;whiteSpace=wrap;html=1;fillColor=none;" parent="1" vertex="1">
                    <mxGeometry x="107.25" y="480" width="30" height="30" as="geometry"/>
                </mxCell>
                <mxCell id="vXPnH6IOQ0V_pmYwCunW-31" style="edgeStyle=none;html=1;exitX=0.5;exitY=0;exitDx=0;exitDy=0;entryX=0.1;entryY=0.5;entryDx=0;entryDy=0;entryPerimeter=0;" edge="1" parent="1" source="lk7DuotzEt6AuaLzIbeO-46" target="vXPnH6IOQ0V_pmYwCunW-30">
                    <mxGeometry relative="1" as="geometry"/>
                </mxCell>
                <mxCell id="lk7DuotzEt6AuaLzIbeO-46" value="para" style="rounded=0;whiteSpace=wrap;html=1;fillColor=default;" parent="1" vertex="1">
                    <mxGeometry x="167.25" y="480" width="30" height="30" as="geometry"/>
                </mxCell>
                <mxCell id="lk7DuotzEt6AuaLzIbeO-47" value="para" style="rounded=0;whiteSpace=wrap;html=1;fillColor=default;" parent="1" vertex="1">
                    <mxGeometry x="197.25" y="480" width="30" height="30" as="geometry"/>
                </mxCell>
                <mxCell id="lk7DuotzEt6AuaLzIbeO-57" style="edgeStyle=none;html=1;exitX=1;exitY=0.25;exitDx=0;exitDy=0;entryX=0.1;entryY=0.5;entryDx=0;entryDy=0;entryPerimeter=0;" parent="1" source="lk7DuotzEt6AuaLzIbeO-47" target="vXPnH6IOQ0V_pmYwCunW-2" edge="1">
                    <mxGeometry relative="1" as="geometry">
                        <mxPoint x="318" y="490" as="sourcePoint"/>
                        <mxPoint x="240" y="490" as="targetPoint"/>
                    </mxGeometry>
                </mxCell>
                <mxCell id="lk7DuotzEt6AuaLzIbeO-50" value="Line2" style="rounded=0;whiteSpace=wrap;html=1;fillColor=none;" parent="1" vertex="1">
                    <mxGeometry x="275.25" y="440" width="140" height="80" as="geometry"/>
                </mxCell>
                <mxCell id="lk7DuotzEt6AuaLzIbeO-51" value="Line1" style="rounded=0;whiteSpace=wrap;html=1;fillColor=none;" parent="1" vertex="1">
                    <mxGeometry x="275.25" y="400" width="140" height="40" as="geometry"/>
                </mxCell>
                <mxCell id="lk7DuotzEt6AuaLzIbeO-53" value="" style="rounded=0;whiteSpace=wrap;html=1;fillColor=none;" parent="1" vertex="1">
                    <mxGeometry x="291" y="400" width="36" height="60" as="geometry"/>
                </mxCell>
                <mxCell id="lk7DuotzEt6AuaLzIbeO-54" value="Text" style="rounded=0;whiteSpace=wrap;html=1;fillColor=none;" parent="1" vertex="1">
                    <mxGeometry x="291" y="400" width="36" height="20" as="geometry"/>
                </mxCell>
                <mxCell id="lk7DuotzEt6AuaLzIbeO-55" value="Text" style="rounded=0;whiteSpace=wrap;html=1;fillColor=none;" parent="1" vertex="1">
                    <mxGeometry x="291" y="420" width="36" height="20" as="geometry"/>
                </mxCell>
                <mxCell id="lk7DuotzEt6AuaLzIbeO-56" value="Text" style="rounded=0;whiteSpace=wrap;html=1;fillColor=none;" parent="1" vertex="1">
                    <mxGeometry x="291" y="440" width="36" height="20" as="geometry"/>
                </mxCell>
                <mxCell id="lk7DuotzEt6AuaLzIbeO-60" value="para" style="rounded=0;whiteSpace=wrap;html=1;" parent="1" vertex="1">
                    <mxGeometry x="172.25" y="100" width="55" height="30" as="geometry"/>
                </mxCell>
                <mxCell id="lk7DuotzEt6AuaLzIbeO-76" style="edgeStyle=none;html=1;exitX=1;exitY=0.5;exitDx=0;exitDy=0;entryX=0;entryY=0.5;entryDx=0;entryDy=0;" parent="1" source="lk7DuotzEt6AuaLzIbeO-61" target="lk7DuotzEt6AuaLzIbeO-74" edge="1">
                    <mxGeometry relative="1" as="geometry"/>
                </mxCell>
                <mxCell id="lk7DuotzEt6AuaLzIbeO-61" value="para" style="rounded=0;whiteSpace=wrap;html=1;fillColor=default;" parent="1" vertex="1">
                    <mxGeometry x="227.25" y="100" width="47.5" height="30" as="geometry"/>
                </mxCell>
                <mxCell id="lk7DuotzEt6AuaLzIbeO-67" value="para" style="rounded=0;whiteSpace=wrap;html=1;fillColor=default;" parent="1" vertex="1">
                    <mxGeometry x="137.25" y="480" width="30" height="30" as="geometry"/>
                </mxCell>
                <mxCell id="vXPnH6IOQ0V_pmYwCunW-29" value="wrap pages" style="edgeStyle=none;html=1;exitX=0.5;exitY=1;exitDx=0;exitDy=0;entryX=0.549;entryY=0.008;entryDx=0;entryDy=0;entryPerimeter=0;" edge="1" parent="1" source="lk7DuotzEt6AuaLzIbeO-71" target="vXPnH6IOQ0V_pmYwCunW-18">
                    <mxGeometry relative="1" as="geometry"/>
                </mxCell>
                <mxCell id="lk7DuotzEt6AuaLzIbeO-71" value="" style="rounded=0;whiteSpace=wrap;html=1;fillColor=none;" parent="1" vertex="1">
                    <mxGeometry x="29.999999999999982" y="390" width="484.75" height="200" as="geometry"/>
                </mxCell>
                <mxCell id="lk7DuotzEt6AuaLzIbeO-72" value="" style="rounded=0;whiteSpace=wrap;html=1;fillColor=none;" parent="1" vertex="1">
                    <mxGeometry x="369.5" y="70" width="36" height="60" as="geometry"/>
                </mxCell>
                <mxCell id="lk7DuotzEt6AuaLzIbeO-73" value="Text" style="rounded=0;whiteSpace=wrap;html=1;fillColor=none;" parent="1" vertex="1">
                    <mxGeometry x="369.5" y="70" width="36" height="20" as="geometry"/>
                </mxCell>
                <mxCell id="lk7DuotzEt6AuaLzIbeO-74" value="Text" style="rounded=0;whiteSpace=wrap;html=1;fillColor=none;" parent="1" vertex="1">
                    <mxGeometry x="369.5" y="90" width="36" height="20" as="geometry"/>
                </mxCell>
                <mxCell id="lk7DuotzEt6AuaLzIbeO-75" value="Text" style="rounded=0;whiteSpace=wrap;html=1;fillColor=none;" parent="1" vertex="1">
                    <mxGeometry x="369.5" y="110" width="36" height="20" as="geometry"/>
                </mxCell>
                <mxCell id="lk7DuotzEt6AuaLzIbeO-77" value="Text" style="rounded=0;whiteSpace=wrap;html=1;fillColor=none;" parent="1" vertex="1">
                    <mxGeometry x="291" y="460" width="36" height="20" as="geometry"/>
                </mxCell>
                <mxCell id="lk7DuotzEt6AuaLzIbeO-78" value="Text" style="rounded=0;whiteSpace=wrap;html=1;fillColor=none;" parent="1" vertex="1">
                    <mxGeometry x="291" y="480" width="36" height="20" as="geometry"/>
                </mxCell>
                <mxCell id="lk7DuotzEt6AuaLzIbeO-79" value="Text" style="rounded=0;whiteSpace=wrap;html=1;fillColor=none;" parent="1" vertex="1">
                    <mxGeometry x="291" y="500" width="36" height="20" as="geometry"/>
                </mxCell>
                <mxCell id="lk7DuotzEt6AuaLzIbeO-80" value="Text" style="rounded=0;whiteSpace=wrap;html=1;fillColor=none;" parent="1" vertex="1">
                    <mxGeometry x="291" y="520" width="36" height="20" as="geometry"/>
                </mxCell>
                <mxCell id="lk7DuotzEt6AuaLzIbeO-81" value="Text" style="rounded=0;whiteSpace=wrap;html=1;fillColor=none;" parent="1" vertex="1">
                    <mxGeometry x="291" y="540" width="36" height="20" as="geometry"/>
                </mxCell>
                <mxCell id="lk7DuotzEt6AuaLzIbeO-82" value="Text" style="rounded=0;whiteSpace=wrap;html=1;fillColor=none;" parent="1" vertex="1">
                    <mxGeometry x="291" y="560" width="36" height="20" as="geometry"/>
                </mxCell>
                <mxCell id="lk7DuotzEt6AuaLzIbeO-83" value="Line3" style="rounded=0;whiteSpace=wrap;html=1;fillColor=none;" parent="1" vertex="1">
                    <mxGeometry x="275.25" y="520" width="140" height="60" as="geometry"/>
                </mxCell>
                <mxCell id="lk7DuotzEt6AuaLzIbeO-86" value="Page1" style="rounded=0;whiteSpace=wrap;html=1;fillColor=none;align=right;" parent="1" vertex="1">
                    <mxGeometry x="275.25" y="400" width="210" height="180" as="geometry"/>
                </mxCell>
                <mxCell id="vXPnH6IOQ0V_pmYwCunW-1" value="" style="shape=curlyBracket;whiteSpace=wrap;html=1;rounded=1;labelPosition=left;verticalLabelPosition=middle;align=right;verticalAlign=middle;" vertex="1" parent="1">
                    <mxGeometry x="340" y="240" width="28.51" height="40" as="geometry"/>
                </mxCell>
                <mxCell id="vXPnH6IOQ0V_pmYwCunW-2" value="" style="shape=curlyBracket;whiteSpace=wrap;html=1;rounded=1;labelPosition=left;verticalLabelPosition=middle;align=right;verticalAlign=middle;" vertex="1" parent="1">
                    <mxGeometry x="246.24" y="440" width="28.51" height="140" as="geometry"/>
                </mxCell>
                <mxCell id="vXPnH6IOQ0V_pmYwCunW-3" value="" style="rounded=0;whiteSpace=wrap;html=1;" vertex="1" parent="1">
                    <mxGeometry x="47.24999999999999" y="740" width="90" height="30" as="geometry"/>
                </mxCell>
                <mxCell id="vXPnH6IOQ0V_pmYwCunW-4" value="document" style="text;html=1;align=center;verticalAlign=middle;resizable=0;points=[];autosize=1;strokeColor=none;fillColor=none;" vertex="1" parent="1">
                    <mxGeometry x="29.999999999999993" y="650" width="80" height="30" as="geometry"/>
                </mxCell>
                <mxCell id="vXPnH6IOQ0V_pmYwCunW-5" value="para" style="rounded=0;whiteSpace=wrap;html=1;fillColor=none;" vertex="1" parent="1">
                    <mxGeometry x="47.24999999999999" y="740" width="30" height="30" as="geometry"/>
                </mxCell>
                <mxCell id="vXPnH6IOQ0V_pmYwCunW-6" value="para" style="rounded=0;whiteSpace=wrap;html=1;fillColor=none;" vertex="1" parent="1">
                    <mxGeometry x="77.25" y="740" width="30" height="30" as="geometry"/>
                </mxCell>
                <mxCell id="vXPnH6IOQ0V_pmYwCunW-7" value="para" style="rounded=0;whiteSpace=wrap;html=1;fillColor=none;" vertex="1" parent="1">
                    <mxGeometry x="107.25" y="740" width="30" height="30" as="geometry"/>
                </mxCell>
                <mxCell id="vXPnH6IOQ0V_pmYwCunW-33" style="edgeStyle=none;html=1;exitX=0.5;exitY=0;exitDx=0;exitDy=0;entryX=0.1;entryY=0.5;entryDx=0;entryDy=0;entryPerimeter=0;" edge="1" parent="1" source="vXPnH6IOQ0V_pmYwCunW-8" target="vXPnH6IOQ0V_pmYwCunW-32">
                    <mxGeometry relative="1" as="geometry"/>
                </mxCell>
                <mxCell id="vXPnH6IOQ0V_pmYwCunW-8" value="para" style="rounded=0;whiteSpace=wrap;html=1;fillColor=default;" vertex="1" parent="1">
                    <mxGeometry x="167.25" y="740" width="30" height="30" as="geometry"/>
                </mxCell>
                <mxCell id="vXPnH6IOQ0V_pmYwCunW-9" value="para" style="rounded=0;whiteSpace=wrap;html=1;fillColor=default;" vertex="1" parent="1">
                    <mxGeometry x="197.25" y="740" width="30" height="30" as="geometry"/>
                </mxCell>
                <mxCell id="vXPnH6IOQ0V_pmYwCunW-10" style="edgeStyle=none;html=1;exitX=1;exitY=0.25;exitDx=0;exitDy=0;entryX=0.1;entryY=0.5;entryDx=0;entryDy=0;entryPerimeter=0;" edge="1" parent="1" source="vXPnH6IOQ0V_pmYwCunW-9" target="vXPnH6IOQ0V_pmYwCunW-28">
                    <mxGeometry relative="1" as="geometry">
                        <mxPoint x="318" y="750" as="sourcePoint"/>
                        <mxPoint x="240" y="750" as="targetPoint"/>
                    </mxGeometry>
                </mxCell>
                <mxCell id="vXPnH6IOQ0V_pmYwCunW-11" value="Line2" style="rounded=0;whiteSpace=wrap;html=1;fillColor=none;" vertex="1" parent="1">
                    <mxGeometry x="275.25" y="700" width="140" height="80" as="geometry"/>
                </mxCell>
                <mxCell id="vXPnH6IOQ0V_pmYwCunW-12" value="Line1" style="rounded=0;whiteSpace=wrap;html=1;fillColor=none;" vertex="1" parent="1">
                    <mxGeometry x="275.25" y="660" width="140" height="40" as="geometry"/>
                </mxCell>
                <mxCell id="vXPnH6IOQ0V_pmYwCunW-13" value="" style="rounded=0;whiteSpace=wrap;html=1;fillColor=none;" vertex="1" parent="1">
                    <mxGeometry x="291" y="660" width="36" height="60" as="geometry"/>
                </mxCell>
                <mxCell id="vXPnH6IOQ0V_pmYwCunW-14" value="Text" style="rounded=0;whiteSpace=wrap;html=1;fillColor=none;" vertex="1" parent="1">
                    <mxGeometry x="291" y="660" width="36" height="20" as="geometry"/>
                </mxCell>
                <mxCell id="vXPnH6IOQ0V_pmYwCunW-15" value="Text" style="rounded=0;whiteSpace=wrap;html=1;fillColor=none;" vertex="1" parent="1">
                    <mxGeometry x="291" y="680" width="36" height="20" as="geometry"/>
                </mxCell>
                <mxCell id="vXPnH6IOQ0V_pmYwCunW-16" value="Text" style="rounded=0;whiteSpace=wrap;html=1;fillColor=none;" vertex="1" parent="1">
                    <mxGeometry x="291" y="700" width="36" height="20" as="geometry"/>
                </mxCell>
                <mxCell id="vXPnH6IOQ0V_pmYwCunW-17" value="para" style="rounded=0;whiteSpace=wrap;html=1;fillColor=default;" vertex="1" parent="1">
                    <mxGeometry x="137.25" y="740" width="30" height="30" as="geometry"/>
                </mxCell>
                <mxCell id="vXPnH6IOQ0V_pmYwCunW-18" value="" style="rounded=0;whiteSpace=wrap;html=1;fillColor=none;" vertex="1" parent="1">
                    <mxGeometry x="29.999999999999996" y="650" width="484.75" height="200" as="geometry"/>
                </mxCell>
                <mxCell id="vXPnH6IOQ0V_pmYwCunW-19" value="Text" style="rounded=0;whiteSpace=wrap;html=1;fillColor=none;" vertex="1" parent="1">
                    <mxGeometry x="291" y="720" width="36" height="20" as="geometry"/>
                </mxCell>
                <mxCell id="vXPnH6IOQ0V_pmYwCunW-20" value="Text" style="rounded=0;whiteSpace=wrap;html=1;fillColor=none;" vertex="1" parent="1">
                    <mxGeometry x="291" y="740" width="36" height="20" as="geometry"/>
                </mxCell>
                <mxCell id="vXPnH6IOQ0V_pmYwCunW-21" value="Text" style="rounded=0;whiteSpace=wrap;html=1;fillColor=none;" vertex="1" parent="1">
                    <mxGeometry x="291" y="760" width="36" height="20" as="geometry"/>
                </mxCell>
                <mxCell id="vXPnH6IOQ0V_pmYwCunW-22" value="Text" style="rounded=0;whiteSpace=wrap;html=1;fillColor=none;" vertex="1" parent="1">
                    <mxGeometry x="291" y="780" width="36" height="20" as="geometry"/>
                </mxCell>
                <mxCell id="vXPnH6IOQ0V_pmYwCunW-23" value="Text" style="rounded=0;whiteSpace=wrap;html=1;fillColor=none;" vertex="1" parent="1">
                    <mxGeometry x="291" y="800" width="36" height="20" as="geometry"/>
                </mxCell>
                <mxCell id="vXPnH6IOQ0V_pmYwCunW-24" value="Text" style="rounded=0;whiteSpace=wrap;html=1;fillColor=none;" vertex="1" parent="1">
                    <mxGeometry x="291" y="820" width="36" height="20" as="geometry"/>
                </mxCell>
                <mxCell id="vXPnH6IOQ0V_pmYwCunW-25" value="Line3" style="rounded=0;whiteSpace=wrap;html=1;fillColor=none;" vertex="1" parent="1">
                    <mxGeometry x="275.25" y="780" width="140" height="60" as="geometry"/>
                </mxCell>
                <mxCell id="vXPnH6IOQ0V_pmYwCunW-26" value="Page1" style="rounded=0;whiteSpace=wrap;html=1;fillColor=none;align=right;" vertex="1" parent="1">
                    <mxGeometry x="275.25" y="660" width="210" height="120" as="geometry"/>
                </mxCell>
                <mxCell id="vXPnH6IOQ0V_pmYwCunW-27" value="Page2" style="rounded=0;whiteSpace=wrap;html=1;fillColor=none;align=right;" vertex="1" parent="1">
                    <mxGeometry x="275.25" y="780" width="210" height="60" as="geometry"/>
                </mxCell>
                <mxCell id="vXPnH6IOQ0V_pmYwCunW-28" value="" style="shape=curlyBracket;whiteSpace=wrap;html=1;rounded=1;labelPosition=left;verticalLabelPosition=middle;align=right;verticalAlign=middle;" vertex="1" parent="1">
                    <mxGeometry x="246.24" y="700" width="28.51" height="140" as="geometry"/>
                </mxCell>
                <mxCell id="vXPnH6IOQ0V_pmYwCunW-30" value="" style="shape=curlyBracket;whiteSpace=wrap;html=1;rounded=1;labelPosition=left;verticalLabelPosition=middle;align=right;verticalAlign=middle;" vertex="1" parent="1">
                    <mxGeometry x="246.24" y="400" width="28.51" height="40" as="geometry"/>
                </mxCell>
                <mxCell id="vXPnH6IOQ0V_pmYwCunW-32" value="" style="shape=curlyBracket;whiteSpace=wrap;html=1;rounded=1;labelPosition=left;verticalLabelPosition=middle;align=right;verticalAlign=middle;" vertex="1" parent="1">
                    <mxGeometry x="246.24" y="660" width="28.51" height="40" as="geometry"/>
                </mxCell>
                <mxCell id="vXPnH6IOQ0V_pmYwCunW-34" value="" style="rounded=0;whiteSpace=wrap;html=1;fillColor=none;" vertex="1" parent="1">
                    <mxGeometry x="39.75" y="30" width="440.25" height="320" as="geometry"/>
                </mxCell>
                <mxCell id="vXPnH6IOQ0V_pmYwCunW-35" value="Data" style="text;html=1;align=center;verticalAlign=middle;resizable=0;points=[];autosize=1;strokeColor=none;fillColor=none;" vertex="1" parent="1">
                    <mxGeometry x="480" y="30" width="50" height="30" as="geometry"/>
                </mxCell>
                <mxCell id="vXPnH6IOQ0V_pmYwCunW-36" value="layout" style="text;html=1;align=center;verticalAlign=middle;resizable=0;points=[];autosize=1;strokeColor=none;fillColor=none;" vertex="1" parent="1">
                    <mxGeometry x="530" y="375" width="60" height="30" as="geometry"/>
                </mxCell>
                <mxCell id="vXPnH6IOQ0V_pmYwCunW-37" value="" style="rounded=0;whiteSpace=wrap;html=1;fillColor=none;" vertex="1" parent="1">
                    <mxGeometry x="17.25" y="375" width="512.75" height="495" as="geometry"/>
                </mxCell>
            </root>
        </mxGraphModel>
    </diagram>
</mxfile>